<?xml version="1.0" encoding="utf-8"?>
<!-- Generator: Adobe Illustrator 25.0.0, SVG Export Plug-In . SVG Version: 6.00 Build 0)  -->
<svg version="1.1" id="Capa_1" xmlns="http://www.w3.org/2000/svg" xmlns:xlink="http://www.w3.org/1999/xlink" x="0px" y="0px"
	 viewBox="0 0 24 24" style="enable-background:new 0 0 24 24;" xml:space="preserve">
<style type="text/css">
	.st0{fill:#FFFFFF;}
</style>
<path class="st0" d="M12,8.1c-2.2,0-3.9,1.7-3.9,3.9s1.7,3.9,3.9,3.9s3.9-1.7,3.9-3.9c0,0,0,0,0,0l0,0c0.1-2.1-1.6-3.8-3.7-3.9
	C12.1,8.1,12.1,8.1,12,8.1z"/>
<path class="st0" d="M23.9,6.9c-0.1-3.8-3.1-6.8-6.9-6.8H6.9C3.2,0.2,0.2,3.2,0.1,6.9V12H0v5.1c0.1,3.7,3.1,6.7,6.8,6.8H17
	c3.8,0,6.8-3,6.9-6.8V12l0,0V6.9z M12,18.2c-3.4,0-6.2-2.8-6.2-6.2S8.6,5.8,12,5.8s6.2,2.8,6.2,6.2l0,0C18.2,15.4,15.4,18.2,12,18.2
	C12,18.2,12,18.2,12,18.2z M18.2,7.1c-0.8,0-1.4-0.6-1.4-1.4s0.6-1.4,1.4-1.4l0,0c0.8,0,1.4,0.6,1.4,1.4S19,7.1,18.2,7.1z"/>
</svg>
