<?xml version="1.0" encoding="utf-8"?>
<!-- Generator: Adobe Illustrator 27.8.1, SVG Export Plug-In . SVG Version: 6.00 Build 0)  -->
<svg version="1.1" id="Capa_1" xmlns="http://www.w3.org/2000/svg" xmlns:xlink="http://www.w3.org/1999/xlink" x="0px" y="0px"
	 viewBox="0 0 30 30" style="enable-background:new 0 0 30 30;" xml:space="preserve">
<style type="text/css">
	.st0{fill:#FFFFFF;}
</style>
<g>
	<path class="st0" d="M27.8,1.6C27.4,2.1,27,2.6,26.6,3c-2.9,3.4-5.8,6.8-8.8,10.2c0,0,0,0.1-0.1,0.1c3.3,4.9,6.7,9.7,10,14.6
		c0,0-0.1,0-0.1,0c0,0,0,0-0.1,0c-2.5,0-4.9,0-7.4,0c-0.1,0-0.2,0-0.2-0.1c-2.2-3.2-4.3-6.3-6.5-9.5c0,0,0-0.1-0.1-0.1
		c0,0,0,0-0.1,0.1c-1.2,1.4-2.5,2.9-3.7,4.3c-1.5,1.7-3,3.5-4.5,5.2c0,0-0.1,0.1-0.1,0.1c-0.7,0-1.4,0-2.1,0c0,0,0,0-0.1,0
		c3.2-3.7,6.4-7.4,9.6-11.1c0,0-0.1-0.1-0.1-0.1c-2-2.9-3.9-5.7-5.9-8.6C5,6,3.6,3.8,2.1,1.7c0,0,0-0.1-0.1-0.1c2.6,0,5.1,0,7.7,0
		c0,0,0,0.1,0.1,0.1c2.2,3.2,4.5,6.5,6.7,9.7c0.1,0.1,0.2,0.2,0.3,0.4c0,0,0.1-0.1,0.1-0.1c0.7-0.8,1.3-1.5,2-2.3
		c2-2.4,4-4.7,6.1-7.1c0.2-0.3,0.4-0.5,0.6-0.8C26.3,1.6,27,1.6,27.8,1.6z M24.7,26.2c0-0.1-0.1-0.1-0.1-0.2
		C20.3,19.9,16,13.8,11.7,7.6c-1-1.4-2-2.8-3-4.3c0-0.1-0.1-0.1-0.2-0.1c-1.1,0-2.2,0-3.3,0c0,0-0.1,0-0.1,0c0,0.1,0.1,0.1,0.1,0.1
		c3,4.3,6,8.6,9,12.9c2.3,3.3,4.6,6.5,6.8,9.8c0,0.1,0.1,0.1,0.2,0.1c1.1,0,2.2,0,3.2,0C24.6,26.2,24.6,26.2,24.7,26.2z"/>
</g>
</svg>
