<?xml version="1.0" encoding="utf-8"?>
<!-- Generator: Adobe Illustrator 25.0.0, SVG Export Plug-In . SVG Version: 6.00 Build 0)  -->
<svg version="1.1" id="Capa_1" xmlns="http://www.w3.org/2000/svg" xmlns:xlink="http://www.w3.org/1999/xlink" x="0px" y="0px"
	 viewBox="0 0 31.5 31.5" style="enable-background:new 0 0 31.5 31.5;" xml:space="preserve">
<style type="text/css">
	.st0{fill:#FFFFFF;}
</style>
<path class="st0" d="M31.1,9.7c-0.1-1.3-0.6-2.6-1.4-3.6c-0.9-0.9-2.1-1.5-3.4-1.5h-0.2C22,4.3,15.8,4.3,15.7,4.3s-6.2,0-10.3,0.3
	H5.2c-1.3,0-2.5,0.6-3.4,1.5C1,7.1,0.5,8.4,0.4,9.7c-0.2,1.6-0.3,3.3-0.3,4.9v2.3c0,1.6,0.1,3.3,0.3,4.9c0.1,1.3,0.6,2.6,1.4,3.6
	c1,0.9,2.2,1.4,3.5,1.5h0.4c2.3,0.3,9.3,0.3,10,0.3h0.1c0,0,6.2,0,10.3-0.3h0.2c1.3-0.1,2.5-0.6,3.4-1.5c0.8-1,1.3-2.3,1.4-3.6
	c0.2-1.6,0.3-3.3,0.3-4.9v-2.3C31.4,13,31.3,11.3,31.1,9.7z M11.7,9.5l11.2,5.9l-11.2,5.9V9.5z"/>
</svg>
